<svg width="18" height="24" viewBox="0 0 18 24" fill="none" xmlns="http://www.w3.org/2000/svg">
<path d="M0 19.8101V18.5539H2.03731V8.59861C2.03731 6.95719 2.55873 5.51383 3.60156 4.26853C4.64608 3.02407 5.96855 2.24858 7.56896 1.94207V1.25619C7.56896 0.906968 7.69133 0.610508 7.93606 0.366807C8.18079 0.122269 8.47808 0 8.82793 0C9.17695 0 9.47508 0.122269 9.72233 0.366807C9.96874 0.610508 10.0919 0.906968 10.0919 1.25619V1.94207C11.6932 2.24858 13.0152 3.02448 14.0581 4.26979C15.1009 5.51593 15.6223 6.95929 15.6223 8.59987V18.5527H17.6609V19.8088L0 19.8101ZM8.82667 23.095C8.26488 23.095 7.78552 22.8961 7.38857 22.4983C6.99162 22.1014 6.79314 21.624 6.79314 21.0663H10.8678C10.8678 21.6274 10.668 22.106 10.2686 22.5021C9.86824 22.8974 9.38761 23.095 8.82667 23.095ZM3.29881 18.5527H14.3621V8.59987C14.3621 7.07318 13.8234 5.77344 12.7461 4.70066C11.6697 3.62871 10.3644 3.09274 8.83045 3.09274C7.29648 3.09274 5.99125 3.62871 4.91478 4.70066C3.8383 5.77344 3.30007 7.07318 3.30007 8.59987L3.29881 18.5527Z" fill="#4B4E6D"/>
</svg>
