<svg width="17" height="16" viewBox="0 0 17 16" fill="none" xmlns="http://www.w3.org/2000/svg">
<path d="M2.52632 0H7.57895C8.24897 0 8.89155 0.266165 9.36532 0.739941C9.8391 1.21372 10.1053 1.8563 10.1053 2.52632V5.89474H9.26316V2.52632C9.26316 2.07964 9.08571 1.65125 8.76986 1.3354C8.45401 1.01955 8.02563 0.842105 7.57895 0.842105H2.52632C2.07964 0.842105 1.65125 1.01955 1.3354 1.3354C1.01955 1.65125 0.842105 2.07964 0.842105 2.52632V13.4737C0.842105 13.9204 1.01955 14.3488 1.3354 14.6646C1.65125 14.9805 2.07964 15.1579 2.52632 15.1579H7.57895C8.02563 15.1579 8.45401 14.9805 8.76986 14.6646C9.08571 14.3488 9.26316 13.9204 9.26316 13.4737V10.1053H10.1053V13.4737C10.1053 14.1437 9.8391 14.7863 9.36532 15.2601C8.89155 15.7338 8.24897 16 7.57895 16H2.52632C1.8563 16 1.21372 15.7338 0.739941 15.2601C0.266165 14.7863 0 14.1437 0 13.4737V2.52632C0 1.8563 0.266165 1.21372 0.739941 0.739941C1.21372 0.266165 1.8563 0 2.52632 0ZM5.05263 7.57895H14.5263L11.7895 4.84211L12.3453 4.21053L16.1347 8L12.3453 11.7895L11.7895 11.1579L14.5263 8.42105H5.05263V7.57895Z" fill="#09D5D7"/>
</svg>
