<svg width="25" height="25" viewBox="0 0 25 25" fill="none" xmlns="http://www.w3.org/2000/svg">
<path d="M10.7679 3C11.5377 1.66667 13.4623 1.66667 14.2321 3L21.5933 15.75C22.3631 17.0833 21.4008 18.75 19.8612 18.75H5.13878C3.59918 18.75 2.63693 17.0833 3.40673 15.75L10.7679 3Z" fill="#FFC24D"/>
<path d="M12.7363 6.22461C12.9414 6.22461 13.0439 6.32715 13.0439 6.53223L13.0439 13.0947C13.0439 13.2998 12.9414 13.4023 12.7363 13.4023L12.1484 13.4023C11.9434 13.4023 11.8408 13.2998 11.8408 13.0947L11.8408 6.53223C11.8408 6.32715 11.9434 6.22461 12.1484 6.22461L12.7363 6.22461ZM12.7363 14.7012C12.9414 14.7012 13.0439 14.8037 13.0439 15.0088L13.0439 15.5967C13.0439 15.8018 12.9414 15.9043 12.7363 15.9043L12.1484 15.9043C11.9434 15.9043 11.8408 15.8018 11.8408 15.5967L11.8408 15.0088C11.8408 14.8037 11.9434 14.7012 12.1484 14.7012L12.7363 14.7012Z" fill="white"/>
</svg>
