<svg width="16" height="16" viewBox="0 0 16 16" fill="" xmlns="http://www.w3.org/2000/svg">
<path d="M1.615 16C1.16833 16 0.787333 15.8427 0.472 15.528C0.157333 15.2133 0 14.8323 0 14.385V1.615C0 1.16833 0.157333 0.787333 0.472 0.472C0.786667 0.157333 1.16767 0 1.615 0H14.385C14.8317 0 15.2127 0.157333 15.528 0.472C15.8427 0.786667 16 1.16767 16 1.615V14.385C16 14.8317 15.8427 15.2127 15.528 15.528C15.2133 15.8427 14.8323 16 14.385 16H1.615ZM6.5 15V8.5H1V14.385C1 14.5643 1.05767 14.7117 1.173 14.827C1.28833 14.9423 1.43567 15 1.615 15H6.5ZM7.5 15H14.385C14.5643 15 14.7117 14.9423 14.827 14.827C14.9423 14.7117 15 14.5643 15 14.385V8.5H7.5V15ZM1 7.5H15V1.615C15 1.43567 14.9423 1.28833 14.827 1.173C14.7117 1.05767 14.5643 1 14.385 1H1.615C1.43567 1 1.28833 1.05767 1.173 1.173C1.05767 1.28833 1 1.43567 1 1.615V7.5Z" fill="aliceblue"/>
</svg>
