<svg width="15" height="15" viewBox="0 0 15 15" fill="none" xmlns="http://www.w3.org/2000/svg">
<circle cx="7.5" cy="7.5" r="7.5" fill="#D9D9D9"/>
<path d="M7.10938 11C6.91406 11 6.81641 10.9023 6.81641 10.707V6.16602C6.81641 5.9707 6.91406 5.87305 7.10938 5.87305H7.89062C8.08594 5.87305 8.18359 5.9707 8.18359 6.16602V10.707C8.18359 10.9023 8.08594 11 7.89062 11H7.10938ZM7.10938 5.12109C6.91406 5.12109 6.81641 5.02344 6.81641 4.82812V4.20312C6.81641 4.00781 6.91406 3.91016 7.10938 3.91016H7.89062C8.08594 3.91016 8.18359 4.00781 8.18359 4.20312V4.82812C8.18359 5.02344 8.08594 5.12109 7.89062 5.12109H7.10938Z" fill="#595959"/>
</svg>
