<svg width="19" height="19" viewBox="0 0 19 19" fill="none" xmlns="http://www.w3.org/2000/svg">
<path d="M4.19789 5.86588C4.19797 5.52424 4.32646 5.19511 4.55787 4.94377C4.78928 4.69244 5.1067 4.53727 5.44718 4.50904L5.55887 4.50491L12.8257 4.50491C13.5399 4.50491 14.126 5.05509 14.183 5.75465L14.1871 5.86634V13.1331C14.1873 13.475 14.0588 13.8044 13.8273 14.0558C13.5957 14.3073 13.2781 14.4625 12.9374 14.4904L12.8257 14.4946L5.55749 14.495C5.2159 14.4946 4.88696 14.3658 4.63583 14.1342C4.3847 13.9027 4.22971 13.5853 4.20157 13.2448L4.19743 13.1331L4.19743 5.86634L4.19789 5.86588ZM11.324 7.50493L11.2753 7.44702L11.2188 7.39324L11.159 7.3482L11.0947 7.31143L11.023 7.28017L10.954 7.25903L10.8708 7.2457L10.8014 7.24064L7.58401 7.24065L7.5022 7.24616C7.35905 7.26423 7.22598 7.32941 7.12396 7.43143C7.02193 7.53345 6.95675 7.66652 6.93869 7.80967L6.93363 7.89103L6.93869 7.97238C6.95675 8.11553 7.02193 8.2486 7.12396 8.35062C7.22598 8.45265 7.35905 8.51783 7.5022 8.53589L7.58355 8.54095L9.23134 8.54141L6.8941 10.8786L6.84354 10.9356C6.74512 11.0606 6.69596 11.2174 6.70537 11.3762C6.71478 11.535 6.78211 11.6849 6.89462 11.7974C7.00712 11.9099 7.15697 11.9772 7.31579 11.9866C7.47461 11.9961 7.63137 11.9469 7.75637 11.8485L7.81337 11.7979L10.1506 9.46067L10.1511 11.1085L10.1561 11.1898C10.176 11.3468 10.2525 11.4912 10.3712 11.5958C10.4899 11.7004 10.6427 11.7581 10.801 11.7581C10.9592 11.7581 11.112 11.7004 11.2308 11.5958C11.3495 11.4912 11.426 11.3468 11.4459 11.1898L11.4509 11.1085L11.4509 7.89103L11.444 7.79496L11.433 7.73797L11.4192 7.69017L11.3907 7.61571L11.3663 7.5702L11.324 7.50493Z" fill="#00D4D6"/>
</svg>
