<svg width="18" height="18" viewBox="0 0 18 18" fill="none" xmlns="http://www.w3.org/2000/svg">
<path d="M7.28735 1C4.14367 1.66984 1.66984 4.14367 1 7.28735M17 7.28735C16.3302 4.14367 13.8563 1.66984 10.7127 1M10.7127 17C13.8563 16.3302 16.3302 13.8563 17 10.7127M1 10.7127C1.66984 13.8563 4.14367 16.3302 7.28735 17" stroke="#595959" stroke-linecap="round" stroke-linejoin="round"/>
<path d="M6.86677 10.9396C6.71778 10.9407 6.57188 10.8971 6.44789 10.8145C6.32391 10.7319 6.22751 10.6141 6.17114 10.4761C6.11477 10.3382 6.10102 10.1866 6.13165 10.0408C6.16228 9.89497 6.2359 9.76168 6.343 9.65811C6.4501 9.55453 6.58577 9.48542 6.73253 9.45969C6.87928 9.43396 7.03037 9.45278 7.16632 9.51374C7.30227 9.57469 7.41685 9.67498 7.49526 9.80166C7.57367 9.92835 7.61233 10.0756 7.60625 10.2245C7.60003 10.4164 7.51938 10.5984 7.38136 10.732C7.24335 10.8655 7.05881 10.9397 6.86677 10.9396ZM11.1823 10.9396C11.0333 10.9407 10.8874 10.8971 10.7634 10.8145C10.6394 10.7319 10.543 10.6141 10.4867 10.4761C10.4303 10.3382 10.4165 10.1866 10.4472 10.0408C10.4778 9.89497 10.5514 9.76168 10.6585 9.65811C10.7656 9.55453 10.9013 9.48542 11.048 9.45969C11.1948 9.43396 11.3459 9.45278 11.4818 9.51374C11.6178 9.57469 11.7324 9.67498 11.8108 9.80166C11.8892 9.92835 11.9278 10.0756 11.9218 10.2245C11.9155 10.4164 11.8349 10.5984 11.6969 10.732C11.5589 10.8655 11.3743 10.9397 11.1823 10.9396Z" stroke="#595959" stroke-linecap="round" stroke-linejoin="round"/>
<path d="M4.4543 5.58765L5.95725 7.3513M13.5824 5.58765L12.0851 7.3513M9.01225 6.37547C11.9314 6.37547 14.2975 8.74197 14.2975 11.6607C14.2975 12.0756 13.9611 12.4124 13.5458 12.4124H4.4543C4.35559 12.4124 4.25785 12.3929 4.16665 12.3552C4.07546 12.3174 3.99259 12.262 3.92279 12.1922C3.853 12.1224 3.79763 12.0396 3.75985 11.9484C3.72208 11.8572 3.70264 11.7594 3.70264 11.6607C3.70264 8.74159 6.06876 6.37547 8.98789 6.37547H9.01225Z" stroke="#595959" stroke-linecap="round" stroke-linejoin="round"/>
</svg>
