<svg width="16" height="21" viewBox="0 0 16 21" fill="none" xmlns="http://www.w3.org/2000/svg">
<path d="M7.7944 0.751163L7.81156 0.751556L7.82872 0.751163C8.3957 0.738187 8.95903 0.83391 9.48527 1.03201C10.0115 1.2301 10.4888 1.52611 10.8901 1.90104C11.2912 2.27591 11.6081 2.72193 11.8237 3.21189C12.0394 3.70176 12.1499 4.22666 12.1499 4.75604C12.1499 5.28541 12.0394 5.81032 11.8237 6.30019C11.6081 6.79015 11.2912 7.23617 10.8901 7.61103C10.4888 7.98596 10.0115 8.28197 9.48527 8.48006C8.95903 8.67816 8.3957 8.77389 7.82872 8.76091L7.81156 8.76052L7.7944 8.76091C7.22742 8.77389 6.66408 8.67816 6.13785 8.48006C5.61166 8.28197 5.13429 7.98596 4.73305 7.61103C4.33188 7.23617 4.01502 6.79015 3.79937 6.30019C3.58375 5.81032 3.47318 5.28541 3.47318 4.75604C3.47318 4.22666 3.58375 3.70176 3.79937 3.21189C4.01502 2.72192 4.33188 2.27591 4.73305 1.90104C5.13429 1.52611 5.61166 1.2301 6.13785 1.03201C6.66408 0.83391 7.22742 0.738187 7.7944 0.751163ZM1.97453 14.1618C2.76385 13.4064 3.84115 12.9765 4.97099 12.9765H10.6521C11.782 12.9765 12.8593 13.4064 13.6486 14.1618C14.4368 14.9161 14.8731 15.932 14.8731 16.9839V19.628H0.75V16.9839C0.75 15.932 1.18634 14.9161 1.97453 14.1618Z" stroke="#4B4E6D" strokeWidth="1.5"/>
</svg>
