<svg width="21" height="18" viewBox="0 0 21 18" fill="none" xmlns="http://www.w3.org/2000/svg">
<path d="M17.6667 3.66675H3C1.89543 3.66675 1 4.56218 1 5.66675V15.0001C1 16.1047 1.89543 17.0001 3 17.0001H17.6667C18.7712 17.0001 19.6667 16.1047 19.6667 15.0001V5.66675C19.6667 4.56218 18.7712 3.66675 17.6667 3.66675Z" stroke="#595959" stroke-linejoin="round"/>
<path d="M5.66667 3.66667V2.33333C5.66667 1.97971 5.80714 1.64057 6.05719 1.39052C6.30724 1.14048 6.64638 1 7 1H13.6667C14.0203 1 14.3594 1.14048 14.6095 1.39052C14.8595 1.64057 15 1.97971 15 2.33333V3.66667M19.6667 8.33333H1M13 8.33333V9.33333C13 9.42174 12.9649 9.50652 12.9024 9.56904C12.8399 9.63155 12.7551 9.66667 12.6667 9.66667H8C7.91159 9.66667 7.82681 9.63155 7.7643 9.56904C7.70178 9.50652 7.66667 9.42174 7.66667 9.33333V8.33333" stroke="#595959" stroke-linecap="round" stroke-linejoin="round"/>
</svg>
