<svg width="16" height="18" viewBox="0 0 16 18" fill="none" xmlns="http://www.w3.org/2000/svg">
<path d="M6.12 1H1.48C1.2149 1 1 1.2149 1 1.48V4.52C1 4.7851 1.2149 5 1.48 5H6.12C6.3851 5 6.6 4.7851 6.6 4.52V1.48C6.6 1.2149 6.3851 1 6.12 1Z" stroke="#ffffff"/>
<path d="M10.5199 13H5.8799C5.61481 13 5.3999 13.2149 5.3999 13.48V16.52C5.3999 16.7851 5.61481 17 5.8799 17H10.5199C10.785 17 10.9999 16.7851 10.9999 16.52V13.48C10.9999 13.2149 10.785 13 10.5199 13Z" stroke="#ffffff"/>
<path d="M14.9198 1H10.2798C10.0147 1 9.7998 1.2149 9.7998 1.48V4.52C9.7998 4.7851 10.0147 5 10.2798 5H14.9198C15.1849 5 15.3998 4.7851 15.3998 4.52V1.48C15.3998 1.2149 15.1849 1 14.9198 1Z" stroke="#ffffff"/>
<path d="M3.7998 5V7.8C3.7998 8.22435 3.96838 8.63131 4.26843 8.93137C4.56849 9.23143 4.97546 9.4 5.3998 9.4H10.9998C11.4242 9.4 11.8311 9.23143 12.1312 8.93137C12.4312 8.63131 12.5998 8.22435 12.5998 7.8V5M8.1998 9.4V13" stroke="#ffffff"/>
</svg>
